<svg xmlns="http://www.w3.org/2000/svg" width="246" height="346" fill="none" viewBox="0 0 246 346"><g opacity=".3"><line x1="103.833" x2="97.462" y1="309.81" y2="313.647" stroke="url(#paint0_linear)" stroke-linecap="round"/></g><g opacity=".3"><line x1="105.308" x2="76.33" y1="305.334" y2="289.953" stroke="url(#paint1_linear)" stroke-linecap="round"/></g><g opacity=".3"><line x1="167.366" x2="112.014" y1="299.159" y2="305.535" stroke="url(#paint2_linear)" stroke-linecap="round"/></g><g opacity=".3"><line x1="148.981" x2="110.137" y1="309.841" y2="307.58" stroke="url(#paint3_linear)" stroke-linecap="round"/></g><mask id="mask0" width="6" height="6" x="166" y="296" maskUnits="userSpaceOnUse" style="mask-type:alpha"><circle cx="169.102" cy="299.153" r="2.698" fill="#5CA4A9" transform="rotate(20.7486 169.102 299.153)"/></mask><g mask="url(#mask0)"><path fill="#D76969" d="M172.58 297.586L167.534 295.674L165.623 300.72L170.669 302.632L172.58 297.586Z"/></g><mask id="mask1" width="10" height="10" x="144" y="305" maskUnits="userSpaceOnUse" style="mask-type:alpha"><circle r="4.555" fill="#5CA4A9" transform="matrix(-0.935144 -0.354267 -0.354267 0.935144 149.086 309.909)"/></mask><g mask="url(#mask1)"><path fill="#D79D69" d="M146.44 304.036L154.959 307.263L151.732 315.782L143.212 312.555L146.44 304.036Z"/></g><mask id="mask2" width="4" height="4" x="95" y="312" maskUnits="userSpaceOnUse" style="mask-type:alpha"><circle r="1.408" fill="#5CA4A9" transform="matrix(-0.935144 -0.354267 -0.354267 0.935144 96.6092 313.916)"/></mask><g mask="url(#mask2)"><path fill="#D76969" d="M95.7916 312.101L98.4242 313.098L97.4269 315.731L94.7943 314.733L95.7916 312.101Z"/></g><mask id="mask3" width="10" height="10" x="69" y="284" maskUnits="userSpaceOnUse" style="mask-type:alpha"><circle cx="73.963" cy="288.788" r="4.692" fill="#5CA4A9" transform="rotate(20.7486 73.9626 288.788)"/></mask><g mask="url(#mask3)"><path fill="#EABA82" d="M80.0126 286.063L71.2372 282.738L67.9127 291.514L76.6881 294.838L80.0126 286.063Z"/></g><g filter="url(#filter0_f)"><circle cx="107.882" cy="301.378" r="3.754" fill="#5CA97B" transform="rotate(20.7486 107.882 301.378)"/></g><mask id="mask4" width="15" height="15" x="102" y="300" maskUnits="userSpaceOnUse" style="mask-type:alpha"><circle cx="109.164" cy="307.139" r="7.001" fill="#5CA4A9" transform="rotate(20.7486 109.164 307.139)"/></mask><g mask="url(#mask4)"><path fill="#5CA97B" d="M118.191 303.072L105.097 298.112L100.137 311.206L113.23 316.166L118.191 303.072Z"/></g><g opacity=".3"><line x1="170.834" x2="153.264" y1="77.471" y2="109.299" stroke="url(#paint4_linear)" stroke-linecap="round"/></g><g opacity=".3"><line x1="109.547" x2="49.623" y1="104.528" y2="87.868" stroke="url(#paint5_linear)" stroke-linecap="round"/></g><g opacity=".3"><line x1="151.512" x2="110.532" y1="53.784" y2="104.142" stroke="url(#paint6_linear)" stroke-linecap="round"/></g><g opacity=".3"><line x1="103.158" x2="110.587" y1="52.056" y2="103.614" stroke="url(#paint7_linear)" stroke-linecap="round"/></g><g opacity=".3"><line x1="20.398" x2="47.258" y1="94.597" y2="86.914" stroke="url(#paint8_linear)" stroke-linecap="round"/></g><mask id="mask5" width="16" height="16" x="143" y="44" maskUnits="userSpaceOnUse" style="mask-type:alpha"><circle cx="151.291" cy="51.588" r="7.5" fill="#5CA4A9" transform="rotate(-5.69727 151.291 51.5877)"/></mask><g mask="url(#mask5)"><path fill="#D76969" d="M158.009 43.3802L143.083 44.8693L144.572 59.7952L159.498 58.3061L158.009 43.3802Z"/></g><mask id="mask6" width="5" height="5" x="100" y="49" maskUnits="userSpaceOnUse" style="mask-type:alpha"><circle r="2.071" fill="#5CA4A9" transform="matrix(-0.99506 0.0992723 0.0992723 0.99506 102.633 51.9197)"/></mask><g mask="url(#mask6)"><path fill="#D79D69" d="M100.366 50.0645L104.488 49.6533L104.899 53.775L100.778 54.1862L100.366 50.0645Z"/></g><mask id="mask7" width="5" height="5" x="150" y="108" maskUnits="userSpaceOnUse" style="mask-type:alpha"><circle r="2.02" fill="#5CA4A9" transform="matrix(-0.99506 0.0992723 0.0992723 0.99506 152.659 110.242)"/></mask><g mask="url(#mask7)"><path fill="#D76969" d="M150.449 108.432L154.469 108.031L154.87 112.051L150.85 112.452L150.449 108.432Z"/></g><g filter="url(#filter1_f)"><circle cx="110.163" cy="104.181" r="5.386" fill="#5CA97B" transform="rotate(-5.69727 110.163 104.181)"/></g><mask id="mask8" width="12" height="12" x="104" y="98" maskUnits="userSpaceOnUse" style="mask-type:alpha"><circle cx="110.163" cy="104.181" r="5.386" fill="#5CA4A9" transform="rotate(-5.69727 110.163 104.181)"/></mask><g mask="url(#mask8)"><path fill="#5CA97B" d="M114.988 98.2868L104.269 99.3561L105.339 110.074L116.057 109.005L114.988 98.2868Z"/></g><mask id="mask9" width="10" height="10" x="42" y="83" maskUnits="userSpaceOnUse" style="mask-type:alpha"><circle cx="47.138" cy="87.816" r="4.468" fill="#5CA4A9" transform="rotate(-5.69727 47.1378 87.8159)"/></mask><g mask="url(#mask9)"><path fill="#EABA82" d="M51.1398 82.927L42.2488 83.814L43.1358 92.7049L52.0268 91.8179L51.1398 82.927Z"/></g><g opacity=".3"><line x1="181.898" x2="192.729" y1="74.169" y2="71.708" stroke="url(#paint9_linear)" stroke-linecap="round"/></g><g opacity=".3"><line x1="177.72" x2="226.06" y1="79.181" y2="111.146" stroke="url(#paint10_linear)" stroke-linecap="round"/></g><g opacity=".3"><line x1="90.449" x2="169.163" y1="60.032" y2="76.313" stroke="url(#paint11_linear)" stroke-linecap="round"/></g><g opacity=".3"><line x1="120.277" x2="172.593" y1="53.695" y2="74.396" stroke="url(#paint12_linear)" stroke-linecap="round"/></g><mask id="mask10" width="9" height="8" x="84" y="55" maskUnits="userSpaceOnUse" style="mask-type:alpha"><circle cx="88.339" cy="59.091" r="3.871" fill="#5CA4A9" transform="rotate(-140.994 88.3387 59.0907)"/></mask><g mask="url(#mask10)"><path fill="#D76969" d="M82.8942 59.6623L88.9103 64.5352L93.7832 58.519L87.767 53.6462L82.8942 59.6623Z"/></g><mask id="mask11" width="14" height="14" x="113" y="46" maskUnits="userSpaceOnUse" style="mask-type:alpha"><circle r="6.535" fill="#5CA4A9" transform="matrix(0.777079 0.629404 0.629404 -0.777079 120.447 53.4323)"/></mask><g mask="url(#mask11)"><path fill="#D79D69" d="M121.412 62.6243L111.255 54.3974L119.482 44.2403L129.639 52.4672L121.412 62.6243Z"/></g><mask id="mask12" width="5" height="5" x="191" y="69" maskUnits="userSpaceOnUse" style="mask-type:alpha"><circle r="2.02" fill="#5CA4A9" transform="matrix(0.777079 0.629404 0.629404 -0.777079 193.751 71.5618)"/></mask><g mask="url(#mask12)"><path fill="#D76969" d="M194.049 74.4024L190.91 71.86L193.453 68.7212L196.592 71.2635L194.049 74.4024Z"/></g><mask id="mask13" width="14" height="15" x="220" y="106" maskUnits="userSpaceOnUse" style="mask-type:alpha"><circle cx="227.132" cy="113.348" r="6.732" fill="#5CA4A9" transform="rotate(-140.994 227.132 113.348)"/></mask><g mask="url(#mask13)"><path fill="#EABA82" d="M217.663 114.342L228.126 122.816L236.6 112.354L226.137 103.879L217.663 114.342Z"/></g><g filter="url(#filter2_f)"><circle cx="172.755" cy="83.579" r="5.386" fill="#5CA97B" transform="rotate(-140.994 172.755 83.5786)"/></g><mask id="mask14" width="21" height="21" x="163" y="65" maskUnits="userSpaceOnUse" style="mask-type:alpha"><circle cx="173.598" cy="75.152" r="10.045" fill="#5CA4A9" transform="rotate(-140.994 173.598 75.1521)"/></mask><g mask="url(#mask14)"><path fill="#5CA97B" d="M159.47 76.6355L175.082 89.28L187.726 73.6688L172.115 61.0242L159.47 76.6355Z"/></g><g opacity=".3"><line x1="68.049" x2="68.667" y1="74.88" y2="57.526" stroke="url(#paint13_linear)" stroke-linecap="round"/></g><g opacity=".3"><line x1="69.044" x2="117.28" y1="74.911" y2="76.151" stroke="url(#paint14_linear)" stroke-linecap="round"/></g><g opacity=".3"><line x1="60.96" x2="67.936" y1="113.244" y2="81.149" stroke="url(#paint15_linear)" stroke-linecap="round"/></g><mask id="mask15" width="7" height="7" x="58" y="110" maskUnits="userSpaceOnUse" style="mask-type:alpha"><circle cx="61.343" cy="113.69" r="3.017" fill="#5CA4A9" transform="rotate(160.238 61.3428 113.69)"/></mask><g mask="url(#mask15)"><path fill="#D76969" d="M59.5236 117.549L65.2019 115.509L63.1619 109.831L57.4836 111.871L59.5236 117.549Z"/></g><mask id="mask16" width="11" height="11" x="13" y="90" maskUnits="userSpaceOnUse" style="mask-type:alpha"><circle r="5.093" fill="#5CA4A9" transform="matrix(0.941108 -0.338107 -0.338107 -0.941108 18.1399 95.2155)"/></mask><g mask="url(#mask16)"><path fill="#D66A6A" d="M24.6553 98.2868L15.0686 101.731L11.6244 92.1443L21.2111 88.7001L24.6553 98.2868Z"/></g><mask id="mask17" width="4" height="5" x="67" y="54" maskUnits="userSpaceOnUse" style="mask-type:alpha"><circle r="1.574" fill="#5CA4A9" transform="matrix(0.941108 -0.338107 -0.338107 -0.941108 69.0075 56.5506)"/></mask><g mask="url(#mask17)"><path fill="#D76969" d="M71.0209 57.4997L68.0583 58.564L66.994 55.6015L69.9566 54.5371L71.0209 57.4997Z"/></g><mask id="mask18" width="12" height="11" x="112" y="71" maskUnits="userSpaceOnUse" style="mask-type:alpha"><circle cx="117.804" cy="76.651" r="5.247" fill="#5CA4A9" transform="rotate(160.238 117.804 76.6506)"/></mask><g mask="url(#mask18)"><path fill="#EABA82" d="M114.64 83.3621L124.515 79.8143L120.968 69.939L111.092 73.4869L114.64 83.3621Z"/></g><g filter="url(#filter3_f)"><circle cx="68.531" cy="75.398" r="4.197" fill="#5CA97B" transform="rotate(160.238 68.5311 75.3977)"/></g><mask id="mask19" width="17" height="16" x="60" y="68" maskUnits="userSpaceOnUse" style="mask-type:alpha"><circle cx="68.649" cy="75.906" r="7.828" fill="#5CA4A9" transform="rotate(160.238 68.6494 75.9057)"/></mask><g mask="url(#mask19)"><path fill="#5CA97B" d="M63.929 85.9198L78.6635 80.6262L73.3699 65.8916L58.6354 71.1852L63.929 85.9198Z"/></g><defs><filter id="filter0_f" width="87.509" height="87.509" x="64.127" y="257.623" color-interpolation-filters="sRGB" filterUnits="userSpaceOnUse"><feFlood flood-opacity="0" result="BackgroundImageFix"/><feBlend in="SourceGraphic" in2="BackgroundImageFix" mode="normal" result="shape"/><feGaussianBlur result="effect1_foregroundBlur" stdDeviation="20"/></filter><filter id="filter1_f" width="90.772" height="90.772" x="64.777" y="58.794" color-interpolation-filters="sRGB" filterUnits="userSpaceOnUse"><feFlood flood-opacity="0" result="BackgroundImageFix"/><feBlend in="SourceGraphic" in2="BackgroundImageFix" mode="normal" result="shape"/><feGaussianBlur result="effect1_foregroundBlur" stdDeviation="20"/></filter><filter id="filter2_f" width="90.772" height="90.772" x="127.37" y="38.193" color-interpolation-filters="sRGB" filterUnits="userSpaceOnUse"><feFlood flood-opacity="0" result="BackgroundImageFix"/><feBlend in="SourceGraphic" in2="BackgroundImageFix" mode="normal" result="shape"/><feGaussianBlur result="effect1_foregroundBlur" stdDeviation="20"/></filter><filter id="filter3_f" width="88.397" height="88.397" x="24.333" y="31.199" color-interpolation-filters="sRGB" filterUnits="userSpaceOnUse"><feFlood flood-opacity="0" result="BackgroundImageFix"/><feBlend in="SourceGraphic" in2="BackgroundImageFix" mode="normal" result="shape"/><feGaussianBlur result="effect1_foregroundBlur" stdDeviation="20"/></filter><linearGradient id="paint0_linear" x1="103.488" x2="96.26" y1="308.267" y2="312.62" gradientUnits="userSpaceOnUse"><stop stop-color="#D76969"/><stop offset=".248" stop-color="#D79C69"/><stop offset=".482" stop-color="#E9B880"/><stop offset=".766" stop-color="#D2D65A"/><stop offset="1" stop-color="#60AB8B"/></linearGradient><linearGradient id="paint1_linear" x1="106.453" x2="76.592" y1="304.244" y2="288.394" gradientUnits="userSpaceOnUse"><stop stop-color="#D76969"/><stop offset=".248" stop-color="#D79C69"/><stop offset=".482" stop-color="#E9B880"/><stop offset=".766" stop-color="#D2D65A"/><stop offset="1" stop-color="#60AB8B"/></linearGradient><linearGradient id="paint2_linear" x1="167.691" x2="111.345" y1="297.611" y2="304.102" gradientUnits="userSpaceOnUse"><stop stop-color="#D76969"/><stop offset=".248" stop-color="#D79C69"/><stop offset=".482" stop-color="#E9B880"/><stop offset=".766" stop-color="#D2D65A"/><stop offset="1" stop-color="#60AB8B"/></linearGradient><linearGradient id="paint3_linear" x1="149.567" x2="109.725" y1="308.372" y2="306.054" gradientUnits="userSpaceOnUse"><stop stop-color="#D76969"/><stop offset=".248" stop-color="#D79C69"/><stop offset=".482" stop-color="#E9B880"/><stop offset=".766" stop-color="#D2D65A"/><stop offset="1" stop-color="#60AB8B"/></linearGradient><linearGradient id="paint4_linear" x1="169.763" x2="151.71" y1="76.308" y2="109.012" gradientUnits="userSpaceOnUse"><stop stop-color="#D76969"/><stop offset=".248" stop-color="#D79C69"/><stop offset=".482" stop-color="#E9B880"/><stop offset=".766" stop-color="#D2D65A"/><stop offset="1" stop-color="#60AB8B"/></linearGradient><linearGradient id="paint5_linear" x1="110.431" x2="49.543" y1="103.217" y2="86.289" gradientUnits="userSpaceOnUse"><stop stop-color="#D76969"/><stop offset=".248" stop-color="#D79C69"/><stop offset=".482" stop-color="#E9B880"/><stop offset=".766" stop-color="#D2D65A"/><stop offset="1" stop-color="#60AB8B"/></linearGradient><linearGradient id="paint6_linear" x1="150.664" x2="109.053" y1="52.449" y2="103.583" gradientUnits="userSpaceOnUse"><stop stop-color="#D76969"/><stop offset=".248" stop-color="#D79C69"/><stop offset=".482" stop-color="#E9B880"/><stop offset=".766" stop-color="#D2D65A"/><stop offset="1" stop-color="#60AB8B"/></linearGradient><linearGradient id="paint7_linear" x1="101.602" x2="109.173" y1="51.776" y2="104.323" gradientUnits="userSpaceOnUse"><stop stop-color="#D76969"/><stop offset=".248" stop-color="#D79C69"/><stop offset=".482" stop-color="#E9B880"/><stop offset=".766" stop-color="#D2D65A"/><stop offset="1" stop-color="#60AB8B"/></linearGradient><linearGradient id="paint8_linear" x1="20.33" x2="48.152" y1="96.177" y2="88.219" gradientUnits="userSpaceOnUse"><stop stop-color="#D76969"/><stop offset=".248" stop-color="#D79C69"/><stop offset=".482" stop-color="#E9B880"/><stop offset=".766" stop-color="#D2D65A"/><stop offset="1" stop-color="#60AB8B"/></linearGradient><linearGradient id="paint9_linear" x1="181.743" x2="193.549" y1="75.743" y2="73.06" gradientUnits="userSpaceOnUse"><stop stop-color="#D76969"/><stop offset=".248" stop-color="#D79C69"/><stop offset=".482" stop-color="#E9B880"/><stop offset=".766" stop-color="#D2D65A"/><stop offset="1" stop-color="#60AB8B"/></linearGradient><linearGradient id="paint10_linear" x1="176.475" x2="225.65" y1="80.157" y2="112.673" gradientUnits="userSpaceOnUse"><stop stop-color="#D76969"/><stop offset=".248" stop-color="#D79C69"/><stop offset=".482" stop-color="#E9B880"/><stop offset=".766" stop-color="#D2D65A"/><stop offset="1" stop-color="#60AB8B"/></linearGradient><linearGradient id="paint11_linear" x1="89.656" x2="169.349" y1="61.4" y2="77.883" gradientUnits="userSpaceOnUse"><stop stop-color="#D76969"/><stop offset=".248" stop-color="#D79C69"/><stop offset=".482" stop-color="#E9B880"/><stop offset=".766" stop-color="#D2D65A"/><stop offset="1" stop-color="#60AB8B"/></linearGradient><linearGradient id="paint12_linear" x1="119.26" x2="172.506" y1="54.906" y2="75.974" gradientUnits="userSpaceOnUse"><stop stop-color="#D76969"/><stop offset=".248" stop-color="#D79C69"/><stop offset=".482" stop-color="#E9B880"/><stop offset=".766" stop-color="#D2D65A"/><stop offset="1" stop-color="#60AB8B"/></linearGradient><linearGradient id="paint13_linear" x1="69.531" x2="70.184" y1="75.433" y2="57.08" gradientUnits="userSpaceOnUse"><stop stop-color="#D76969"/><stop offset=".248" stop-color="#D79C69"/><stop offset=".482" stop-color="#E9B880"/><stop offset=".766" stop-color="#D2D65A"/><stop offset="1" stop-color="#60AB8B"/></linearGradient><linearGradient id="paint14_linear" x1="68.505" x2="117.741" y1="76.397" y2="77.663" gradientUnits="userSpaceOnUse"><stop stop-color="#D76969"/><stop offset=".248" stop-color="#D79C69"/><stop offset=".482" stop-color="#E9B880"/><stop offset=".766" stop-color="#D2D65A"/><stop offset="1" stop-color="#60AB8B"/></linearGradient><linearGradient id="paint15_linear" x1="62.32" x2="69.508" y1="114.052" y2="80.979" gradientUnits="userSpaceOnUse"><stop stop-color="#D76969"/><stop offset=".248" stop-color="#D79C69"/><stop offset=".482" stop-color="#E9B880"/><stop offset=".766" stop-color="#D2D65A"/><stop offset="1" stop-color="#60AB8B"/></linearGradient></defs></svg>